<svg data-v-423bf9ae="" xmlns="http://www.w3.org/2000/svg" viewBox="0 0 336.43835616438355 208" class="iconAboveSlogan"><!----><!----><!----><g data-v-423bf9ae="" id="8096ab3f-c78c-46f0-9a3a-4bd61079ab5e" fill="black" transform="matrix(7.792998313903809,0,0,7.792998313903809,-3.3485512733459473,79.52967834472656)"><path d="M1.99 6.86C1.99 5.10 2.80 4.31 3.82 4.31C4.61 4.31 5.22 4.75 5.45 5.81L6.96 5.52C6.57 3.85 5.39 3.01 3.82 3.01C1.85 3.01 0.43 4.35 0.43 6.86C0.43 9.37 1.85 10.71 3.82 10.71C5.39 10.71 6.57 9.88 6.96 8.22L5.45 7.92C5.22 8.97 4.61 9.42 3.82 9.42C2.79 9.42 1.99 8.62 1.99 6.86ZM7.84 6.86C7.84 9.37 9.32 10.71 11.33 10.71C13.31 10.71 14.80 9.37 14.80 6.86C14.80 4.35 13.31 3.01 11.33 3.01C9.32 3.01 7.84 4.35 7.84 6.86ZM9.39 6.86C9.39 5.10 10.26 4.31 11.33 4.31C12.38 4.31 13.24 5.10 13.24 6.86C13.24 8.62 12.38 9.42 11.33 9.42C10.26 9.42 9.39 8.62 9.39 6.86ZM17.64 10.50L17.64 6.82C17.64 5.40 18.24 4.47 19.45 4.47C19.88 4.47 20.16 4.59 20.44 4.77L20.79 3.39C20.45 3.12 20.06 3.01 19.50 3.01C18.55 3.01 17.98 3.50 17.51 4.48L17.51 3.22L16.09 3.22L16.09 10.50ZM21.18 6.86C21.18 9.37 22.67 10.71 24.67 10.71C26.66 10.71 28.14 9.37 28.14 6.86C28.14 4.35 26.66 3.01 24.67 3.01C22.67 3.01 21.18 4.35 21.18 6.86ZM22.74 6.86C22.74 5.10 23.60 4.31 24.67 4.31C25.72 4.31 26.59 5.10 26.59 6.86C26.59 8.62 25.72 9.42 24.67 9.42C23.60 9.42 22.74 8.62 22.74 6.86ZM30.98 10.50L30.98 6.54C30.98 5.10 31.71 4.33 32.70 4.33C33.70 4.33 34.08 4.98 34.08 6.09L34.08 10.50L35.63 10.50L35.63 6.03C35.63 4.30 35.08 3.01 33.07 3.01C32.12 3.01 31.39 3.37 30.86 4.27L30.86 3.22L29.43 3.22L29.43 10.50ZM41.73 9.66C41.76 9.97 41.82 10.30 42.03 10.50L43.60 10.50C43.34 10.23 43.20 9.76 43.20 9.02L43.20 5.92C43.20 3.95 42.18 3.01 40.26 3.01C38.88 3.01 37.53 3.53 37.17 5.21L38.57 5.59C38.78 4.79 39.27 4.27 40.15 4.27C41.09 4.27 41.65 4.75 41.65 5.64L41.65 5.88C41.29 6.05 40.57 6.17 39.80 6.24C38.14 6.43 36.95 7.04 36.95 8.61C36.95 10.04 38.08 10.71 39.41 10.71C40.28 10.71 41.05 10.43 41.73 9.66ZM41.65 8.41C41.31 8.90 40.54 9.51 39.70 9.51C39.06 9.51 38.54 9.24 38.54 8.53C38.53 7.67 39.27 7.48 40.00 7.35C40.70 7.24 41.34 7.08 41.65 6.96Z"></path></g><!----><g data-v-423bf9ae="" id="2efc9e66-b15e-443b-b7c0-d7dfea7c9767" transform="matrix(1.5,0,0,1.5,124.015625,0)" stroke="none" fill="black"><path d="M53.487 44.271a7.384 7.384 0 0 0-3.428-.127c-.357.069-.712-.005-.967-.212l-1.411-1.131c-.398-.319-.522-.88-.301-1.365.401-.881.733-1.803.986-2.739.247-.912 1.266-1.494 2.119-1.167a7 7 0 0 0 5.726-.309c3.236-1.668 4.665-5.734 3.185-9.063A7.012 7.012 0 0 0 52.994 24a6.95 6.95 0 0 0-2.933.647 6.179 6.179 0 0 0-1.04.636 1.764 1.764 0 0 1-2.585-.514c-.575-.961-1.265-1.82-1.961-2.684a2.58 2.58 0 0 1-.278-2.795l1.479-2.87c.421-.818 1.177-1.373 1.974-1.452a6.893 6.893 0 0 0 2.183-.598c2.248-1.028 3.824-3.132 4.112-5.489a7.036 7.036 0 0 0-1.701-5.518C50.68 1.595 48.289.732 45.93 1.08c-2.959.44-5.36 2.81-5.836 5.763a7.03 7.03 0 0 0 .494 3.964c.359.82.36 1.688.003 2.382l-1.158 2.249c-.583 1.13-1.941 1.736-3.104 1.374-1.058-.331-2.824-.554-4.119-.684a.855.855 0 0 1-.747-.651l-1.139-4.804c-.062-.265.017-.55.218-.783a5.962 5.962 0 0 0 1.347-5.056C31.439 2.5 29.583.61 27.271.131A6.297 6.297 0 0 0 26 0c-3.309 0-6 2.691-6 6a6.007 6.007 0 0 0 3.908 5.605c.328.122.555.352.621.632l.912 3.852a.862.862 0 0 1-.563 1.001 17.9 17.9 0 0 0-3.821 1.919c-.435.289-1.078.28-1.46-.03-.516-.418-.491-1.052-.313-1.469.743-1.744.911-3.667.486-5.563-.768-3.412-3.595-6.139-7.035-6.784-3.27-.613-6.586.583-8.67 3.101-1.716 2.073-2.409 4.803-1.898 7.491.682 3.592 3.561 6.442 7.165 7.094a9.16 9.16 0 0 0 4.482-.298c.429-.145.941.026 1.242.401l.4.497c.312.389.347.92.088 1.353a17.783 17.783 0 0 0-2.392 6.977 1.11 1.11 0 0 1-.997.987l-1.983.173c-.297 0-.602-.138-.86-.391a5.414 5.414 0 0 0-3.462-1.539c-2.218-.138-4.322 1.079-5.276 3.036a5.535 5.535 0 0 0-.069 4.754 5.482 5.482 0 0 0 3.616 3.024c2.28.591 4.784-.424 6.026-2.42.179-.288.532-.481.942-.518l1.728-.151c.479 0 .903.317 1.054.787a17.889 17.889 0 0 0 3.273 5.953c.166.199.155.5-.026.7-.207.229-.447.192-.641.132a6.466 6.466 0 0 0-2.609-.276c-2.973.282-5.417 2.631-5.809 5.584a6.532 6.532 0 0 0 1.55 5.167c1.513 1.729 3.868 2.536 6.165 2.097 2.318-.443 4.257-2.199 4.943-4.477a6.484 6.484 0 0 0 .162-3.141.517.517 0 0 1 .132-.443l.785-.872a.546.546 0 0 1 .641-.127c.516.282 1.055.541 1.599.77.664.279 1.062 1.003.991 1.799a7.073 7.073 0 0 0 .128 2.083c.616 2.925 3.126 5.184 6.104 5.492.249.025.497.038.741.038 3.86 0 7-3.141 7-7 0-.438-.042-.879-.124-1.313-.157-.814.168-1.577.828-1.943a18.081 18.081 0 0 0 2.923-2.021c.322-.274.706-.398.998-.324.45.114.672.378.778.579.151.285.17.628.055.943a7.596 7.596 0 0 0-.35 3.871c.538 3.18 3.148 5.704 6.348 6.138a7.52 7.52 0 0 0 6.6-2.391 7.44 7.44 0 0 0 1.908-5.785c-.297-3.061-2.498-5.666-5.477-6.483zM50 30a1 1 0 1 1 0 2 1 1 0 0 1 0-2zm-11-9a1 1 0 1 1 0 2 1 1 0 0 1 0-2zm-5 4a1 1 0 1 1 0 2 1 1 0 0 1 0-2zM23 39a1 1 0 1 1 0-2 1 1 0 0 1 0 2zm1-6c-2.206 0-4-1.794-4-4s1.794-4 4-4 4 1.794 4 4-1.794 4-4 4zm8 16c-3.309 0-6-2.692-6-6 0-3.309 2.691-6 6-6s6 2.691 6 6c0 3.308-2.691 6-6 6zm11-7a1 1 0 1 1 0-2 1 1 0 0 1 0 2zm-2-6c-2.206 0-4-1.794-4-4s1.794-4 4-4 4 1.794 4 4-1.794 4-4 4z" fill-rule="evenodd"></path></g><!----><g data-v-423bf9ae="" id="6e8dd231-875f-4b58-8726-1e371f01fcb3" fill="black" transform="matrix(2.8431410789489746,0,0,2.8431410789489746,44.12437438964844,188.9832763671875)"><path d="M2.83 7.83L2.83 7.83L2.83 7.83Q2.84 7.83 2.87 7.81L2.87 7.81L2.87 7.81Q2.84 7.83 2.83 7.83L2.83 7.83ZM4.39 1.67L4.39 1.67Q4.01 0.90 2.66 1.50L2.66 1.50L2.66 1.50Q2.09 1.75 1.52 2.55L1.52 2.55L1.52 2.55Q1.06 3.20 0.64 4.06L0.64 4.06L0.64 4.06Q-0.29 5.91-0.57 8.21L-0.57 8.21L-0.57 8.21Q-0.68 9.15-0.70 9.80L-0.70 9.80L-0.70 9.80Q-0.72 10.74-0.29 11.05L-0.29 11.05L-0.29 11.05Q0.17 11.39 1.31 11.00L1.31 11.00L1.31 11.00Q1.96 10.77 2.55 10.19L2.55 10.19L2.55 10.19Q3.06 9.71 3.38 8.87L3.38 8.87L3.38 8.87Q3.52 8.48 3.58 8.11L3.58 8.11L3.58 8.11Q3.64 7.72 3.53 7.57L3.53 7.57L3.53 7.57Q3.36 7.29 2.69 7.43L2.69 7.43L2.69 7.43Q1.96 7.58 1.35 8.07L1.35 8.07L1.35 8.07Q1.17 8.21 1.37 8.27L1.37 8.27L1.37 8.27Q1.52 8.31 1.69 8.30L1.69 8.30L1.69 8.30Q1.92 8.28 2.15 8.21L2.15 8.21L2.15 8.21Q2.16 8.48 1.97 9.04L1.97 9.04L1.97 9.04Q1.78 9.59 1.52 9.99L1.52 9.99L1.52 9.99Q1.47 10.06 1.44 10.08L1.44 10.08L1.44 10.08Q1.33 10.21 1.24 10.31L1.24 10.31L1.24 10.31Q1.15 10.40 1.02 10.51L1.02 10.51L1.02 10.51Q0.97 10.45 0.92 10.36L0.92 10.36L0.92 10.36Q0.79 10.13 0.77 9.65L0.77 9.65L0.77 9.65Q0.75 9.36 0.85 8.16L0.85 8.16L0.85 8.16Q1.05 5.98 2.00 3.95L2.00 3.95L2.00 3.95Q2.52 2.84 3.00 2.21L3.00 2.21L3.00 2.21Q3.12 2.51 3.13 2.81L3.13 2.81L3.13 2.81Q3.14 3.19 2.95 3.34L2.95 3.34L2.95 3.34Q2.78 3.47 2.99 3.53L2.99 3.53L2.99 3.53Q3.14 3.58 3.29 3.57L3.29 3.57L3.29 3.57Q3.90 3.51 4.27 3.22L4.27 3.22L4.27 3.22Q4.58 2.98 4.58 2.48L4.58 2.48L4.58 2.48Q4.58 2.06 4.39 1.67L4.39 1.67ZM14.23 5.20L14.23 5.20Q14.10 6.64 13.84 7.92L13.84 7.92L13.84 7.92Q13.43 9.88 12.65 10.64L12.65 10.64L12.65 10.64Q12.56 10.55 12.49 10.38L12.49 10.38L12.49 10.38Q12.30 9.97 12.32 9.03L12.32 9.03L12.32 9.03Q12.35 7.34 12.92 5.48L12.92 5.48L12.92 5.48Q13.42 3.85 14.12 3.01L14.12 3.01L14.12 3.01Q14.19 3.25 14.24 3.62L14.24 3.62L14.24 3.62Q14.31 4.21 14.23 5.20L14.23 5.20ZM15.16 1.96L15.16 1.96Q14.95 1.79 14.21 2.05L14.21 2.05L14.21 2.05Q13.71 2.24 13.73 2.39L13.73 2.39L13.73 2.39Q13.48 2.48 13.30 2.63L13.30 2.63L13.30 2.63Q12.32 3.40 11.66 5.22L11.66 5.22L11.66 5.22Q11.11 6.70 10.92 8.50L10.92 8.50L10.92 8.50Q10.83 9.28 10.86 9.92L10.86 9.92L10.86 9.92Q10.90 10.77 11.27 11.13L11.27 11.13L11.27 11.13Q11.45 11.31 11.88 11.33L11.88 11.33L11.88 11.33Q12.42 11.36 13.25 11.02L13.25 11.02L13.25 11.02Q13.93 10.74 14.45 9.94L14.45 9.94L14.45 9.94Q14.92 9.21 15.24 7.85L15.24 7.85L15.24 7.85Q15.45 6.94 15.57 5.84L15.57 5.84L15.57 5.84Q15.74 4.44 15.74 3.78L15.74 3.78L15.74 3.78Q15.72 2.45 15.16 1.96L15.16 1.96ZM35.42 7.89L35.42 7.89Q35.31 7.90 34.41 7.84L34.41 7.84L34.41 7.84Q34.82 6.63 35.28 5.57L35.28 5.57L35.28 5.57Q35.44 5.18 35.99 3.95L35.99 3.95L35.99 3.95Q35.97 4.61 35.79 7.85L35.79 7.85L35.79 7.85Q35.62 7.87 35.42 7.89L35.42 7.89ZM37.23 1.18L37.23 1.18Q37.04 1.09 36.66 1.16L36.66 1.16L36.66 1.16Q36.02 1.27 35.81 1.55L35.81 1.55L35.81 1.55Q35.61 1.80 34.83 3.58L34.83 3.58L34.83 3.58Q34.69 3.90 34.33 4.70L34.33 4.70L34.33 4.70Q34.02 5.42 33.84 5.83L33.84 5.83L33.84 5.83Q33.42 6.79 33.04 7.86L33.04 7.86L33.04 7.86Q32.12 7.97 31.47 8.37L31.47 8.37L31.47 8.37Q31.29 8.48 31.32 8.58L31.32 8.58L31.32 8.58Q31.35 8.67 31.55 8.68L31.55 8.68L31.55 8.68Q32.07 8.70 32.55 8.43L32.55 8.43L32.55 8.43Q32.69 8.41 32.74 8.41L32.74 8.41L32.74 8.41Q32.80 8.41 32.86 8.41L32.86 8.41L32.86 8.41Q32.54 9.39 32.22 10.53L32.22 10.53L32.22 10.53Q32.15 10.79 32.81 10.67L32.81 10.67L32.81 10.67Q33.11 10.62 33.36 10.49L33.36 10.49L33.36 10.49Q33.63 10.37 33.66 10.27L33.66 10.27L33.66 10.27Q33.93 9.32 34.20 8.48L34.20 8.48L34.20 8.48Q34.49 8.50 34.69 8.47L34.69 8.47L34.69 8.47Q35.40 8.39 35.75 8.46L35.75 8.46L35.75 8.46Q35.64 10.55 35.64 12.02L35.64 12.02L35.64 12.02Q35.64 12.10 35.87 12.11L35.87 12.11L35.87 12.11Q36.09 12.12 36.37 12.06L36.37 12.06L36.37 12.06Q37.11 11.91 37.11 11.62L37.11 11.62L37.11 11.62Q37.11 9.90 37.31 6.45L37.31 6.45L37.31 6.45Q37.51 3.00 37.51 1.27L37.51 1.27L37.51 1.27Q37.51 1.18 37.23 1.18L37.23 1.18ZM50.11 10.27L50.11 10.27Q50.11 10.27 50.10 10.28L50.10 10.28L50.10 10.28Q50.11 10.27 50.11 10.27L50.11 10.27L50.11 10.27L50.11 10.27ZM53.94 0.67L53.94 0.67Q53.87 0.42 53.14 0.62L53.14 0.62L53.14 0.62Q52.41 0.82 52.48 1.06L52.48 1.06L52.48 1.06Q52.68 1.79 52.71 2.47L52.71 2.47L52.71 2.47Q52.73 2.95 52.60 4.01L52.60 4.01L52.60 4.01Q52.38 5.59 52.03 6.73L52.03 6.73L52.03 6.73Q51.74 7.65 51.13 8.81L51.13 8.81L51.13 8.81Q51.15 8.78 51.09 8.90L51.09 8.90L51.09 8.90Q51.01 7.21 51.01 1.98L51.01 1.98L51.01 1.98Q51.01 1.89 50.79 1.88L50.79 1.88L50.79 1.88Q50.59 1.87 50.30 1.94L50.30 1.94L50.30 1.94Q49.59 2.10 49.55 2.37L49.55 2.37L49.55 2.37Q49.18 4.98 48.58 6.81L48.58 6.81L48.58 6.81Q48.08 8.30 47.39 9.37L47.39 9.37L47.39 9.37Q47.13 8.18 47.24 5.77L47.24 5.77L47.24 5.77Q47.25 5.55 47.30 3.78L47.30 3.78L47.30 3.78Q47.33 2.54 47.72 1.94L47.72 1.94L47.72 1.94Q47.81 1.80 47.50 1.79L47.50 1.79L47.50 1.79Q47.29 1.78 47.13 1.81L47.13 1.81L47.13 1.81Q46.46 1.93 46.28 2.21L46.28 2.21L46.28 2.21Q45.90 2.78 45.84 3.94L45.84 3.94L45.84 3.94Q45.82 4.30 45.81 4.96L45.81 4.96L45.81 4.96Q45.80 5.65 45.79 5.97L45.79 5.97L45.79 5.97Q45.63 9.35 46.27 10.80L46.27 10.80L46.27 10.80Q46.34 10.96 46.86 10.87L46.86 10.87L46.86 10.87Q47.43 10.77 47.66 10.55L47.66 10.55L47.66 10.55Q48.82 9.43 49.57 7.75L49.57 7.75L49.57 7.75Q49.61 9.30 49.70 10.60L49.70 10.60L49.70 10.60Q49.71 10.77 50.16 10.69L50.16 10.69L50.16 10.69Q50.45 10.64 50.68 10.57L50.68 10.57L50.68 10.57Q51.61 10.25 52.35 8.96L52.35 8.96L52.35 8.96Q52.98 7.89 53.36 6.79L53.36 6.79L53.36 6.79Q53.77 5.63 54.02 3.89L54.02 3.89L54.02 3.89Q54.18 2.77 54.17 2.25L54.17 2.25L54.17 2.25Q54.17 1.53 53.94 0.67L53.94 0.67ZM63.13 7.89L63.13 7.89Q63.03 7.90 62.13 7.84L62.13 7.84L62.13 7.84Q62.54 6.63 62.99 5.57L62.99 5.57L62.99 5.57Q63.16 5.18 63.70 3.95L63.70 3.95L63.70 3.95Q63.68 4.61 63.50 7.85L63.50 7.85L63.50 7.85Q63.33 7.87 63.13 7.89L63.13 7.89ZM64.94 1.18L64.94 1.18Q64.76 1.09 64.37 1.16L64.37 1.16L64.37 1.16Q63.73 1.27 63.52 1.55L63.52 1.55L63.52 1.55Q63.32 1.80 62.54 3.58L62.54 3.58L62.54 3.58Q62.41 3.90 62.04 4.70L62.04 4.70L62.04 4.70Q61.73 5.42 61.55 5.83L61.55 5.83L61.55 5.83Q61.13 6.79 60.76 7.86L60.76 7.86L60.76 7.86Q59.83 7.97 59.19 8.37L59.19 8.37L59.19 8.37Q59.01 8.48 59.04 8.58L59.04 8.58L59.04 8.58Q59.06 8.67 59.27 8.68L59.27 8.68L59.27 8.68Q59.79 8.70 60.26 8.43L60.26 8.43L60.26 8.43Q60.40 8.41 60.45 8.41L60.45 8.41L60.45 8.41Q60.51 8.41 60.57 8.41L60.57 8.41L60.57 8.41Q60.25 9.39 59.93 10.53L59.93 10.53L59.93 10.53Q59.86 10.79 60.52 10.67L60.52 10.67L60.52 10.67Q60.82 10.62 61.07 10.49L61.07 10.49L61.07 10.49Q61.35 10.37 61.37 10.27L61.37 10.27L61.37 10.27Q61.64 9.32 61.91 8.48L61.91 8.48L61.91 8.48Q62.21 8.50 62.41 8.47L62.41 8.47L62.41 8.47Q63.11 8.39 63.46 8.46L63.46 8.46L63.46 8.46Q63.36 10.55 63.36 12.02L63.36 12.02L63.36 12.02Q63.36 12.10 63.58 12.11L63.58 12.11L63.58 12.11Q63.80 12.12 64.09 12.06L64.09 12.06L64.09 12.06Q64.82 11.91 64.82 11.62L64.82 11.62L64.82 11.62Q64.82 9.90 65.02 6.45L65.02 6.45L65.02 6.45Q65.22 3.00 65.22 1.27L65.22 1.27L65.22 1.27Q65.22 1.18 64.94 1.18L64.94 1.18ZM78.50 1.12L78.50 1.12Q78.46 0.90 77.72 1.07L77.72 1.07L77.72 1.07Q76.99 1.25 77.03 1.51L77.03 1.51L77.03 1.51Q77.22 2.73 76.99 4.12L76.99 4.12L76.99 4.12Q76.73 5.76 75.97 6.75L75.97 6.75L75.97 6.75Q75.82 6.95 75.57 7.16L75.57 7.16L75.57 7.16Q75.50 7.23 75.39 7.29L75.39 7.29L75.39 7.29Q75.40 7.29 75.32 7.34L75.32 7.34L75.31 7.34L75.31 7.34Q75.31 7.34 75.31 7.34L75.31 7.34L75.31 7.34Q75.24 7.36 75.17 7.38L75.17 7.38L75.16 7.37L75.16 7.37Q75.15 7.37 75.15 7.37L75.15 7.37L75.15 7.37Q75.11 7.36 75.04 7.35L75.04 7.35L75.04 7.35Q75.04 7.35 75.01 7.33L75.01 7.33L75.01 7.33Q75.00 7.33 74.98 7.33L74.98 7.33L74.98 7.33Q74.39 7.06 74.40 5.83L74.40 5.83L74.40 5.83Q74.40 4.47 75.36 1.59L75.36 1.59L75.36 1.59Q75.44 1.34 74.77 1.46L74.77 1.46L74.77 1.46Q74.00 1.60 73.92 1.85L73.92 1.85L73.92 1.85Q73.05 4.44 72.95 5.87L72.95 5.87L72.95 5.87Q72.85 7.12 73.36 7.65L73.36 7.65L73.36 7.65Q73.64 7.94 74.25 7.96L74.25 7.96L74.25 7.96Q74.39 7.97 74.55 7.96L74.55 7.96L74.55 7.96Q74.49 8.59 73.96 10.68L73.96 10.68L73.96 10.68Q73.90 10.94 74.55 10.82L74.55 10.82L74.55 10.82Q74.85 10.77 75.11 10.65L75.11 10.65L75.11 10.65Q75.39 10.52 75.41 10.42L75.41 10.42L75.41 10.42Q75.95 8.28 76.01 7.59L76.01 7.59L76.01 7.59Q76.05 7.57 76.06 7.57L76.06 7.57L76.06 7.57Q77.64 6.90 78.26 4.67L78.26 4.67L78.26 4.67Q78.76 2.84 78.50 1.12L78.50 1.12ZM86.59 1.56L86.59 1.56Q86.47 3.00 85.89 5.35L85.89 5.35L85.89 5.35Q85.53 6.82 85.43 7.22L85.43 7.22L85.43 7.22Q84.97 8.95 84.99 8.90L84.99 8.90L84.99 8.90Q84.93 9.05 85.22 9.06L85.22 9.06L85.22 9.06Q85.39 9.06 85.57 9.03L85.57 9.03L85.57 9.03Q86.32 8.89 86.43 8.64L86.43 8.64L86.43 8.64Q86.48 8.52 86.86 6.95L86.86 6.95L86.86 6.95Q86.95 6.60 87.11 5.97L87.11 5.97L87.11 5.97Q87.28 5.28 87.35 5.00L87.35 5.00L87.35 5.00Q87.92 2.68 88.05 1.17L88.05 1.17L88.05 1.17Q88.06 1.10 87.83 1.09L87.83 1.09L87.83 1.09Q87.62 1.08 87.34 1.13L87.34 1.13L87.34 1.13Q86.62 1.27 86.59 1.56L86.59 1.56ZM84.53 10.22L84.53 10.22Q84.56 10.29 85.03 11.23L85.03 11.23L85.03 11.23Q85.13 11.44 85.82 11.25L85.82 11.25L85.82 11.25Q86.03 11.20 86.22 11.11L86.22 11.11L86.22 11.11Q86.55 10.96 86.50 10.84L86.50 10.84L86.50 10.84Q86.02 9.91 85.99 9.83L85.99 9.83L85.99 9.83Q85.89 9.63 85.20 9.81L85.20 9.81L85.20 9.81Q84.44 10.01 84.53 10.22L84.53 10.22Z"></path></g></svg>